<?xml version="1.0" encoding="utf-8"?>
<!-- Generator: Adobe Illustrator 16.0.0, SVG Export Plug-In . SVG Version: 6.00 Build 0)  -->
<!DOCTYPE svg PUBLIC "-//W3C//DTD SVG 1.1//EN" "http://www.w3.org/Graphics/SVG/1.1/DTD/svg11.dtd">
<svg version="1.1" id="Layer_1" xmlns="http://www.w3.org/2000/svg" xmlns:xlink="http://www.w3.org/1999/xlink" x="0px" y="0px"
	 width="321px" height="90px" viewBox="0 0 321 90" enable-background="new 0 0 321 90" xml:space="preserve">
<g>
	<g>
		<path fill="#FFFFFF" d="M27.383,7.813h6.634v49.572h-6.634v-2.994c-2.602,2.544-5.547,3.815-8.834,3.815
			c-3.914,0-7.162-1.428-9.744-4.285c-2.563-2.916-3.845-6.555-3.845-10.918c0-4.266,1.282-7.827,3.845-10.684
			c2.543-2.876,5.743-4.314,9.598-4.314c3.345,0,6.339,1.37,8.98,4.109V7.813z M11.71,43.003c0,2.74,0.733,4.97,2.202,6.691
			c1.506,1.742,3.404,2.612,5.694,2.612c2.445,0,4.421-0.841,5.928-2.524c1.506-1.742,2.26-3.952,2.26-6.633
			c0-2.681-0.753-4.891-2.26-6.633c-1.507-1.702-3.463-2.553-5.87-2.553c-2.27,0-4.168,0.861-5.693,2.583
			C12.463,38.288,11.71,40.44,11.71,43.003"/>
		<path fill="#FFFFFF" d="M137.488,7.813h6.633v49.572h-6.633v-2.994c-2.602,2.544-5.547,3.815-8.834,3.815
			c-3.914,0-7.162-1.428-9.744-4.285c-2.563-2.916-3.845-6.555-3.845-10.918c0-4.266,1.282-7.827,3.845-10.684
			c2.543-2.876,5.743-4.314,9.598-4.314c3.345,0,6.339,1.37,8.98,4.109V7.813z M121.815,43.003c0,2.74,0.733,4.97,2.202,6.691
			c1.506,1.742,3.404,2.612,5.694,2.612c2.445,0,4.421-0.841,5.928-2.524c1.507-1.742,2.26-3.952,2.26-6.633
			c0-2.681-0.753-4.891-2.26-6.633c-1.507-1.702-3.463-2.553-5.87-2.553c-2.271,0-4.168,0.861-5.694,2.583
			C122.568,38.288,121.815,40.44,121.815,43.003"/>
		<rect x="153.058" y="7.813" fill="#FFFFFF" width="6.604" height="49.572"/>
		<path fill="#FFFFFF" d="M194.66,44.647h-20.486c0.178,2.348,0.939,4.217,2.291,5.606c1.35,1.37,3.08,2.054,5.193,2.054
			c1.645,0,3.004-0.391,4.08-1.174c1.057-0.783,2.26-2.23,3.609-4.344l5.576,3.111c-0.859,1.467-1.77,2.725-2.729,3.771
			c-0.959,1.046-1.986,1.907-3.082,2.583c-1.096,0.675-2.279,1.169-3.551,1.482c-1.271,0.313-2.652,0.469-4.139,0.469
			c-4.266,0-7.689-1.37-10.271-4.109c-2.584-2.759-3.875-6.418-3.875-10.977c0-4.52,1.252-8.179,3.758-10.977
			c2.523-2.759,5.869-4.139,10.037-4.139c4.207,0,7.533,1.34,9.979,4.021c2.426,2.661,3.639,6.35,3.639,11.065L194.66,44.647z
			 M187.881,39.247c-0.92-3.522-3.141-5.283-6.662-5.283c-0.803,0-1.555,0.123-2.26,0.367c-0.705,0.245-1.346,0.598-1.922,1.057
			c-0.578,0.46-1.072,1.013-1.482,1.658c-0.412,0.646-0.725,1.38-0.939,2.202H187.881z"/>
		<path fill="#FFFFFF" d="M209.086,7.813v24.302c2.643-2.739,5.635-4.109,8.98-4.109c3.855,0,7.064,1.438,9.627,4.314
			c2.564,2.857,3.846,6.418,3.846,10.683c0,4.403-1.291,8.042-3.875,10.918c-2.563,2.857-5.801,4.285-9.715,4.285
			c-3.307,0-6.262-1.271-8.863-3.815v2.994h-6.604V7.813H209.086z M224.789,43.297c0-2.74-0.744-4.97-2.23-6.692
			c-1.508-1.761-3.396-2.642-5.666-2.642c-2.426,0-4.402,0.851-5.928,2.553c-1.508,1.683-2.26,3.875-2.26,6.575
			c0,2.779,0.742,5,2.23,6.663c1.486,1.702,3.443,2.553,5.869,2.553c2.289,0,4.188-0.851,5.693-2.553
			C224.025,48.032,224.789,45.879,224.789,43.297"/>
		<rect x="239.125" y="7.813" fill="#FFFFFF" width="6.604" height="49.572"/>
		<path fill="#FFFFFF" d="M261.299,28.798v16.407c0,4.735,1.867,7.103,5.605,7.103c3.736,0,5.605-2.367,5.605-7.103V28.798h6.604
			v16.553c0,2.29-0.283,4.266-0.85,5.929c-0.549,1.487-1.498,2.828-2.848,4.021c-2.23,1.937-5.068,2.906-8.512,2.906
			c-3.424,0-6.252-0.969-8.482-2.906c-1.369-1.193-2.338-2.534-2.906-4.021c-0.547-1.33-0.82-3.306-0.82-5.929V28.798H261.299z"/>
		<path fill="#FFFFFF" d="M314.084,44.647h-20.486c0.176,2.348,0.939,4.217,2.289,5.606c1.35,1.37,3.082,2.054,5.195,2.054
			c1.643,0,3.004-0.391,4.08-1.174c1.057-0.783,2.26-2.23,3.609-4.344l5.576,3.111c-0.861,1.467-1.771,2.725-2.729,3.771
			c-0.959,1.046-1.986,1.907-3.082,2.583c-1.096,0.675-2.279,1.169-3.551,1.482c-1.273,0.313-2.652,0.469-4.139,0.469
			c-4.266,0-7.689-1.37-10.273-4.109c-2.582-2.759-3.873-6.418-3.873-10.977c0-4.52,1.252-8.179,3.756-10.977
			c2.523-2.759,5.871-4.139,10.037-4.139c4.207,0,7.533,1.34,9.98,4.021c2.426,2.661,3.639,6.35,3.639,11.065L314.084,44.647z
			 M307.305,39.247c-0.92-3.522-3.141-5.283-6.662-5.283c-0.803,0-1.557,0.123-2.26,0.367c-0.705,0.245-1.346,0.598-1.924,1.057
			c-0.576,0.46-1.07,1.013-1.482,1.658c-0.41,0.646-0.723,1.38-0.939,2.202H307.305z"/>
	</g>
	<g>
		<g>
			<path fill="#FFFFFF" d="M5.287,73.99h1.548c0.582,0,1.126,0.082,1.632,0.245c0.506,0.164,0.953,0.407,1.339,0.731
				c0.387,0.324,0.688,0.731,0.903,1.222c0.215,0.491,0.323,1.057,0.323,1.697c0,0.655-0.106,1.232-0.317,1.734
				c-0.212,0.501-0.511,0.919-0.898,1.253c-0.387,0.334-0.837,0.583-1.35,0.747c-0.512,0.164-1.066,0.246-1.662,0.246H5.287V73.99z
				 M6.219,80.966h0.328c0.502,0,0.965-0.054,1.389-0.162s0.797-0.28,1.121-0.517c0.324-0.236,0.579-0.551,0.764-0.945
				s0.278-0.865,0.278-1.415c0-0.557-0.093-1.032-0.278-1.426c-0.185-0.393-0.44-0.708-0.764-0.945
				c-0.324-0.237-0.699-0.407-1.126-0.512c-0.426-0.104-0.888-0.157-1.384-0.157H6.219V80.966z"/>
			<path fill="#FFFFFF" d="M19.206,81.864h-0.933V73.99h0.933V81.864z"/>
			<path fill="#FFFFFF" d="M33.771,77.896v0.313c0,0.536-0.086,1.038-0.258,1.504c-0.172,0.467-0.417,0.874-0.734,1.222
				c-0.317,0.349-0.694,0.618-1.131,0.81s-0.91,0.287-1.419,0.287s-0.996-0.108-1.458-0.324s-0.868-0.515-1.215-0.898
				s-0.619-0.821-0.813-1.316c-0.195-0.494-0.292-1.009-0.292-1.545c0-0.557,0.099-1.086,0.297-1.587
				c0.199-0.501,0.477-0.943,0.833-1.327c0.357-0.383,0.772-0.68,1.245-0.893c0.473-0.212,0.974-0.319,1.503-0.319
				c0.589,0,1.152,0.134,1.692,0.402c0.539,0.268,0.99,0.642,1.354,1.123l-0.655,0.658c-0.271-0.39-0.619-0.701-1.042-0.935
				c-0.423-0.233-0.86-0.35-1.31-0.35c-0.411,0-0.799,0.082-1.166,0.245s-0.686,0.394-0.958,0.689
				c-0.271,0.296-0.483,0.639-0.635,1.029c-0.152,0.39-0.228,0.8-0.228,1.232c0,0.404,0.074,0.799,0.223,1.186
				s0.357,0.733,0.625,1.039c0.268,0.307,0.58,0.548,0.938,0.726c0.357,0.178,0.731,0.267,1.121,0.267
				c0.291,0,0.581-0.061,0.868-0.183c0.288-0.122,0.549-0.292,0.784-0.512c0.235-0.22,0.425-0.47,0.57-0.752
				c0.146-0.282,0.222-0.58,0.229-0.893h-1.935v-0.898H33.771z"/>
			<path fill="#FFFFFF" d="M41.936,81.864h-0.933V73.99h0.933V81.864z"/>
			<path fill="#FFFFFF" d="M51.698,81.864h-0.933v-6.976h-1.776V73.99h4.484v0.898h-1.776V81.864z"/>
			<path fill="#FFFFFF" d="M61.202,79.89l-0.853,1.974h-1.002l3.572-8.208l3.572,8.208h-1.002l-0.854-1.974H61.202z M62.918,75.807
				l-1.33,3.185h2.659L62.918,75.807z"/>
			<path fill="#FFFFFF" d="M74.397,80.966h2.272v0.898h-3.205V73.99h0.933V80.966z"/>
			<path fill="#FFFFFF" d="M96.164,75.483c-0.139-0.25-0.305-0.437-0.496-0.559c-0.192-0.122-0.427-0.183-0.705-0.183
				c-0.317,0-0.605,0.104-0.863,0.313c-0.258,0.209-0.387,0.477-0.387,0.804c0,0.278,0.099,0.506,0.298,0.684
				c0.198,0.177,0.446,0.326,0.744,0.444l0.536,0.219c0.284,0.119,0.537,0.247,0.759,0.386c0.222,0.14,0.415,0.301,0.581,0.486
				c0.165,0.185,0.292,0.4,0.382,0.647s0.134,0.531,0.134,0.851c0,0.348-0.061,0.674-0.184,0.977s-0.292,0.565-0.511,0.789
				c-0.218,0.223-0.473,0.393-0.764,0.512c-0.291,0.118-0.602,0.177-0.933,0.177c-0.297,0-0.579-0.054-0.843-0.162
				s-0.5-0.263-0.704-0.465c-0.205-0.202-0.374-0.437-0.506-0.705c-0.132-0.268-0.218-0.559-0.258-0.872l0.942-0.208
				c0,0.432,0.141,0.788,0.422,1.07c0.281,0.282,0.624,0.423,1.027,0.423c0.397,0,0.726-0.151,0.987-0.454
				c0.261-0.303,0.392-0.663,0.392-1.081c0-0.383-0.136-0.703-0.407-0.961c-0.106-0.104-0.233-0.198-0.382-0.282
				s-0.316-0.167-0.501-0.25l-0.516-0.23c-0.245-0.111-0.459-0.225-0.645-0.339c-0.186-0.115-0.353-0.25-0.501-0.407
				c-0.148-0.157-0.266-0.338-0.352-0.543c-0.086-0.206-0.129-0.44-0.129-0.705c0-0.306,0.06-0.586,0.179-0.841
				c0.119-0.254,0.283-0.47,0.491-0.647c0.208-0.177,0.444-0.313,0.709-0.407c0.265-0.094,0.539-0.141,0.824-0.141
				c0.417,0,0.79,0.103,1.121,0.308c0.331,0.206,0.599,0.5,0.804,0.883L96.164,75.483z"/>
			<path fill="#FFFFFF" d="M106.67,81.864h-0.933v-6.976h-1.776V73.99h4.484v0.898h-1.776V81.864z"/>
			<path fill="#FFFFFF" d="M120.173,81.864h-1.131l-2.203-3.332h-0.387v3.332h-0.933V73.99h1.131c0.437,0,0.809,0.021,1.116,0.063
				c0.308,0.042,0.594,0.143,0.858,0.303c0.304,0.188,0.544,0.453,0.719,0.794c0.175,0.341,0.263,0.703,0.263,1.086
				c0,0.571-0.166,1.063-0.496,1.478c-0.331,0.415-0.764,0.656-1.299,0.726L120.173,81.864z M116.453,77.718h0.297
				c0.278,0,0.529-0.019,0.754-0.058c0.225-0.038,0.431-0.108,0.62-0.208c0.188-0.101,0.337-0.247,0.446-0.439
				c0.109-0.191,0.164-0.437,0.164-0.736c0-0.292-0.06-0.534-0.179-0.726c-0.119-0.191-0.276-0.336-0.471-0.434
				c-0.195-0.097-0.408-0.163-0.64-0.198c-0.232-0.035-0.48-0.052-0.744-0.052h-0.248V77.718z"/>
			<path fill="#FFFFFF" d="M128.308,79.89l-0.853,1.974h-1.002l3.572-8.208l3.572,8.208h-1.002l-0.854-1.974H128.308z
				 M130.024,75.807l-1.33,3.185h2.659L130.024,75.807z"/>
			<path fill="#FFFFFF" d="M142.158,81.864h-0.933v-6.976h-1.776V73.99h4.484v0.898h-1.776V81.864z"/>
			<path fill="#FFFFFF" d="M151.008,73.99h4.018v0.898h-3.085v2.204h2.996v0.898h-2.996v2.977h3.085v0.898h-4.018V73.99z"/>
			<path fill="#FFFFFF" d="M169.332,77.896v0.313c0,0.536-0.086,1.038-0.258,1.504c-0.172,0.467-0.418,0.874-0.734,1.222
				c-0.318,0.349-0.695,0.618-1.131,0.81c-0.438,0.191-0.91,0.287-1.42,0.287c-0.508,0-0.994-0.108-1.457-0.324
				s-0.869-0.515-1.216-0.898s-0.618-0.821-0.813-1.316c-0.195-0.494-0.293-1.009-0.293-1.545c0-0.557,0.1-1.086,0.298-1.587
				c0.198-0.501,0.477-0.943,0.833-1.327c0.357-0.383,0.772-0.68,1.246-0.893c0.473-0.212,0.973-0.319,1.502-0.319
				c0.588,0,1.152,0.134,1.691,0.402s0.99,0.642,1.355,1.123l-0.656,0.658c-0.271-0.39-0.617-0.701-1.041-0.935
				c-0.424-0.233-0.859-0.35-1.311-0.35c-0.41,0-0.797,0.082-1.164,0.245s-0.687,0.394-0.958,0.689
				c-0.271,0.296-0.483,0.639-0.635,1.029c-0.152,0.39-0.228,0.8-0.228,1.232c0,0.404,0.074,0.799,0.223,1.186
				s0.357,0.733,0.625,1.039c0.268,0.307,0.58,0.548,0.938,0.726c0.357,0.178,0.73,0.267,1.121,0.267
				c0.291,0,0.58-0.061,0.867-0.183c0.289-0.122,0.549-0.292,0.783-0.512c0.236-0.22,0.426-0.47,0.572-0.752
				c0.145-0.282,0.221-0.58,0.227-0.893h-1.934v-0.898H169.332z"/>
			<path fill="#FFFFFF" d="M175.582,73.99h1.072l1.836,3.362l1.834-3.362h1.072l-2.441,4.449v3.425h-0.932v-3.425L175.582,73.99z"/>
			<path fill="#FFFFFF" d="M203.045,75.493c-0.266-0.25-0.57-0.442-0.918-0.574s-0.699-0.198-1.057-0.198
				c-0.41,0-0.795,0.083-1.156,0.25s-0.676,0.4-0.947,0.7s-0.48,0.644-0.631,1.034c-0.148,0.39-0.223,0.801-0.223,1.232
				c0,0.425,0.074,0.83,0.223,1.217c0.15,0.386,0.357,0.729,0.625,1.029c0.27,0.299,0.582,0.532,0.938,0.7
				c0.357,0.167,0.742,0.25,1.152,0.25c0.363,0,0.717-0.07,1.061-0.209s0.654-0.341,0.934-0.605v1.159
				c-0.285,0.174-0.602,0.31-0.947,0.407c-0.348,0.097-0.688,0.146-1.018,0.146c-0.523,0-1.021-0.103-1.498-0.308
				c-0.477-0.205-0.895-0.496-1.256-0.872c-0.359-0.376-0.641-0.811-0.842-1.305c-0.203-0.494-0.303-1.02-0.303-1.577
				c0-0.571,0.102-1.108,0.307-1.613s0.492-0.949,0.857-1.332c0.367-0.383,0.793-0.679,1.275-0.888s0.996-0.313,1.539-0.313
				c0.336,0,0.668,0.044,0.992,0.131c0.322,0.087,0.621,0.221,0.893,0.402V75.493z"/>
			<path fill="#FFFFFF" d="M215.355,74.141c0.477,0.212,0.895,0.508,1.256,0.888c0.359,0.379,0.643,0.82,0.848,1.321
				c0.205,0.501,0.309,1.027,0.309,1.577c0,0.571-0.102,1.109-0.303,1.613c-0.203,0.505-0.482,0.943-0.844,1.316
				s-0.779,0.662-1.256,0.867c-0.475,0.206-0.98,0.308-1.518,0.308c-0.535,0-1.041-0.103-1.518-0.308
				c-0.477-0.205-0.895-0.494-1.256-0.867c-0.359-0.373-0.641-0.811-0.842-1.316c-0.203-0.504-0.303-1.042-0.303-1.613
				c0-0.55,0.102-1.076,0.307-1.577c0.205-0.501,0.488-0.941,0.85-1.321c0.359-0.379,0.777-0.675,1.254-0.888
				s0.979-0.319,1.508-0.319S214.879,73.929,215.355,74.141z M214.994,80.872c0.359-0.16,0.68-0.386,0.957-0.679
				s0.494-0.633,0.65-1.023c0.154-0.39,0.232-0.804,0.232-1.243c0-0.432-0.072-0.841-0.219-1.227
				c-0.145-0.387-0.352-0.728-0.619-1.023s-0.586-0.526-0.953-0.689s-0.766-0.246-1.195-0.246s-0.828,0.082-1.195,0.246
				s-0.684,0.394-0.953,0.689c-0.268,0.296-0.475,0.637-0.619,1.023c-0.146,0.386-0.219,0.795-0.219,1.227
				c0,0.438,0.078,0.853,0.234,1.243c0.154,0.39,0.371,0.731,0.648,1.023c0.279,0.292,0.598,0.519,0.959,0.679
				c0.359,0.16,0.742,0.24,1.145,0.24C214.252,81.112,214.633,81.032,214.994,80.872z"/>
			<path fill="#FFFFFF" d="M224.93,73.614l5.615,6.193V73.99h0.934v8.198l-5.615-6.193v5.869h-0.934V73.614z"/>
			<path fill="#FFFFFF" d="M242.471,75.483c-0.139-0.25-0.305-0.437-0.496-0.559c-0.193-0.122-0.428-0.183-0.705-0.183
				c-0.318,0-0.605,0.104-0.863,0.313s-0.387,0.477-0.387,0.804c0,0.278,0.1,0.506,0.297,0.684c0.199,0.177,0.447,0.326,0.744,0.444
				l0.537,0.219c0.283,0.119,0.537,0.247,0.758,0.386c0.223,0.14,0.416,0.301,0.58,0.486c0.166,0.185,0.293,0.4,0.383,0.647
				s0.135,0.531,0.135,0.851c0,0.348-0.063,0.674-0.184,0.977c-0.123,0.303-0.293,0.565-0.512,0.789
				c-0.219,0.223-0.473,0.393-0.764,0.512c-0.291,0.118-0.602,0.177-0.934,0.177c-0.297,0-0.578-0.054-0.842-0.162
				c-0.266-0.108-0.5-0.263-0.705-0.465c-0.205-0.202-0.373-0.437-0.506-0.705c-0.133-0.268-0.219-0.559-0.258-0.872l0.941-0.208
				c0,0.432,0.141,0.788,0.422,1.07c0.281,0.282,0.623,0.423,1.027,0.423c0.396,0,0.727-0.151,0.986-0.454
				c0.262-0.303,0.393-0.663,0.393-1.081c0-0.383-0.135-0.703-0.406-0.961c-0.105-0.104-0.234-0.198-0.383-0.282
				s-0.316-0.167-0.5-0.25l-0.516-0.23c-0.246-0.111-0.461-0.225-0.646-0.339c-0.184-0.115-0.352-0.25-0.5-0.407
				s-0.266-0.338-0.352-0.543c-0.088-0.206-0.129-0.44-0.129-0.705c0-0.306,0.059-0.586,0.178-0.841
				c0.119-0.254,0.283-0.47,0.49-0.647c0.209-0.177,0.445-0.313,0.711-0.407c0.264-0.094,0.539-0.141,0.822-0.141
				c0.418,0,0.791,0.103,1.121,0.308c0.33,0.206,0.6,0.5,0.805,0.883L242.471,75.483z"/>
			<path fill="#FFFFFF" d="M251.617,73.99v4.647c0,0.348,0.027,0.667,0.084,0.956c0.057,0.289,0.152,0.548,0.287,0.778
				c0.137,0.229,0.324,0.411,0.561,0.543c0.238,0.132,0.529,0.198,0.873,0.198s0.637-0.066,0.873-0.198
				c0.238-0.132,0.426-0.313,0.561-0.543c0.137-0.23,0.232-0.489,0.289-0.778c0.055-0.289,0.084-0.607,0.084-0.956V73.99h0.932
				v4.981c0,0.432-0.063,0.835-0.188,1.211s-0.307,0.701-0.541,0.976c-0.234,0.275-0.523,0.489-0.863,0.643
				c-0.34,0.153-0.723,0.229-1.146,0.229c-0.422,0-0.803-0.077-1.141-0.229c-0.336-0.153-0.625-0.369-0.863-0.647
				s-0.42-0.604-0.545-0.977s-0.189-0.774-0.189-1.206V73.99H251.617z"/>
			<path fill="#FFFFFF" d="M264.732,80.966h2.273v0.898h-3.205V73.99h0.932V80.966z"/>
			<path fill="#FFFFFF" d="M275.498,81.864h-0.934v-6.976h-1.775V73.99h4.484v0.898h-1.775V81.864z"/>
			<path fill="#FFFFFF" d="M285.25,81.864h-0.934V73.99h0.934V81.864z"/>
			<path fill="#FFFFFF" d="M292.908,73.614l5.615,6.193V73.99h0.934v8.198l-5.615-6.193v5.869h-0.934V73.614z"/>
			<path fill="#FFFFFF" d="M314.021,77.896v0.313c0,0.536-0.086,1.038-0.258,1.504c-0.172,0.467-0.418,0.874-0.734,1.222
				c-0.318,0.349-0.695,0.618-1.131,0.81c-0.438,0.191-0.91,0.287-1.42,0.287s-0.994-0.108-1.457-0.324
				c-0.465-0.216-0.869-0.515-1.217-0.898c-0.346-0.383-0.617-0.821-0.813-1.316c-0.195-0.494-0.293-1.009-0.293-1.545
				c0-0.557,0.1-1.086,0.297-1.587c0.199-0.501,0.477-0.943,0.834-1.327c0.357-0.383,0.771-0.68,1.244-0.893
				c0.475-0.212,0.975-0.319,1.504-0.319c0.588,0,1.152,0.134,1.691,0.402s0.99,0.642,1.355,1.123l-0.656,0.658
				c-0.271-0.39-0.617-0.701-1.041-0.935c-0.424-0.233-0.859-0.35-1.311-0.35c-0.41,0-0.799,0.082-1.164,0.245
				c-0.367,0.164-0.688,0.394-0.959,0.689s-0.482,0.639-0.635,1.029c-0.152,0.39-0.229,0.8-0.229,1.232
				c0,0.404,0.076,0.799,0.225,1.186s0.357,0.733,0.625,1.039c0.268,0.307,0.58,0.548,0.938,0.726
				c0.357,0.178,0.73,0.267,1.121,0.267c0.291,0,0.58-0.061,0.867-0.183c0.289-0.122,0.549-0.292,0.783-0.512
				c0.236-0.22,0.426-0.47,0.572-0.752c0.145-0.282,0.221-0.58,0.227-0.893h-1.934v-0.898H314.021z"/>
		</g>
	</g>
	<g>
		<path fill="#006ADA" d="M88.198,24.873L72.555,40.515L60.432,52.639c-1.564,1.564-3.129,0-3.129,0L48.7,44.035
			c0,0-1.564-1.564,0-3.129l8.603-8.603c1.564-1.564,3.129,0,3.129,0l2.71,2.71c1.076,1.075,2.835,1.075,3.911,0
			c1.076-1.076,1.076-2.835,0-3.911l-6.23-6.23c-0.269-0.269-0.581-0.47-0.914-0.605c-0.083-0.034-0.168-0.063-0.253-0.088
			c-0.257-0.076-0.523-0.113-0.789-0.113c-0.708,0-1.417,0.269-1.955,0.806c0,0,0,0,0,0L41.269,40.515
			c-1.075,1.076-1.075,2.835,0,3.911l15.643,15.643c1.075,1.076,2.835,1.076,3.911,0l15.643-15.643l12.123-12.123
			c1.564-1.564,3.129,0,3.129,0l8.604,8.603c0,0,1.564,1.564,0,3.129l-8.604,8.604c-1.564,1.564-3.129,0-3.129,0l-2.764-2.764
			c-1.076-1.076-2.835-1.076-3.911,0c-1.076,1.075-1.076,2.835,0,3.91l6.284,6.284c1.075,1.076,2.835,1.076,3.911,0l15.643-15.643
			c1.076-1.076,1.076-2.835,0-3.911L92.108,24.873C91.033,23.797,89.273,23.797,88.198,24.873"/>
	</g>
</g>
</svg>
